<?xml version="1.0" encoding="UTF-8"?>
<!DOCTYPE svg PUBLIC "-//W3C//DTD SVG 1.0//EN" "http://www.w3.org/TR/2001/REC-SVG-20010904/DTD/svg10.dtd">
<!-- Creator: CorelDRAW -->
<svg xmlns="http://www.w3.org/2000/svg" xml:space="preserve" width="508mm" height="152.4mm" version="1.0" style="shape-rendering:geometricPrecision; text-rendering:geometricPrecision; image-rendering:optimizeQuality; fill-rule:evenodd; clip-rule:evenodd"
viewBox="0 0 50799.98 15239.98"
 xmlns:xlink="http://www.w3.org/1999/xlink"
 xmlns:xodm="http://www.corel.com/coreldraw/odm/2003">
 <defs>
  <style type="text/css">
   <![CDATA[
    .fil66 {fill:none}
    .fil64 {fill:#FEFEFE}
    .fil63 {fill:#FDFDFD}
    .fil62 {fill:#FCFCFD}
    .fil61 {fill:#FBFBFB}
    .fil60 {fill:#FBFBFA}
    .fil59 {fill:#FAFAFA}
    .fil58 {fill:#F9F9F9}
    .fil57 {fill:#F8F8F8}
    .fil56 {fill:#F7F7F6}
    .fil55 {fill:#F5F4F5}
    .fil54 {fill:#F4F3F4}
    .fil53 {fill:#F2F2F2}
    .fil52 {fill:#F1F0F1}
    .fil51 {fill:#EFEFEF}
    .fil50 {fill:#EDEDEE}
    .fil49 {fill:#ECECEC}
    .fil48 {fill:#EAEAEA}
    .fil47 {fill:#E9E8E8}
    .fil46 {fill:#E7E7E7}
    .fil45 {fill:#E5E4E4}
    .fil44 {fill:#E4E3E3}
    .fil43 {fill:#E1E1E1}
    .fil42 {fill:#E0DFDF}
    .fil41 {fill:#DEDDDD}
    .fil40 {fill:#DCDBDB}
    .fil39 {fill:#DAD9D9}
    .fil38 {fill:#D8D7D7}
    .fil37 {fill:#D6D5D5}
    .fil36 {fill:#D4D3D3}
    .fil35 {fill:#D2D0D1}
    .fil34 {fill:#D0CECE}
    .fil33 {fill:#CECDCD}
    .fil32 {fill:#CCCBCB}
    .fil31 {fill:#CAC8C9}
    .fil30 {fill:#C8C7C7}
    .fil29 {fill:#C6C5C5}
    .fil28 {fill:#C4C3C3}
    .fil27 {fill:#C3C1C1}
    .fil26 {fill:#C1BFBF}
    .fil25 {fill:#BFBEBD}
    .fil24 {fill:#BDBCBC}
    .fil23 {fill:#BBBAB9}
    .fil22 {fill:#B9B8B8}
    .fil21 {fill:#B7B6B7}
    .fil20 {fill:#B7B5B5}
    .fil19 {fill:#B5B4B4}
    .fil18 {fill:#B3B2B2}
    .fil17 {fill:#B2B1B0}
    .fil16 {fill:#B0AFAF}
    .fil15 {fill:#AFAEAE}
    .fil14 {fill:#ADADAD}
    .fil13 {fill:#ACABAB}
    .fil12 {fill:#ABABAB}
    .fil11 {fill:darkgray}
    .fil10 {fill:#A8A8A8}
    .fil9 {fill:#A7A7A7}
    .fil8 {fill:#A6A6A6}
    .fil7 {fill:#A5A6A6}
    .fil6 {fill:#A5A5A5}
    .fil5 {fill:#A5A5A5}
    .fil4 {fill:#A3A3A3}
    .fil3 {fill:#A3A3A3}
    .fil2 {fill:#A3A3A3}
    .fil1 {fill:#A2A2A2}
    .fil0 {fill:url(#id4)}
    .fil65 {fill:url(#id5)}
   ]]>
  </style>
    <clipPath id="id0">
     <path d="M7874.02 2234.98c2966.15,0 5370.73,2404.57 5370.73,5370.73 0,2966.12 -2404.58,5370.69 -5370.73,5370.69 -2966.12,0 -5370.7,-2404.57 -5370.7,-5370.69 0,-2966.16 2404.58,-5370.73 5370.7,-5370.73z"/>
    </clipPath>
   <clipPath id="id1">
    <path d="M7874.02 2234.98c2966.15,0 5370.73,2404.57 5370.73,5370.73 0,2966.12 -2404.58,5370.69 -5370.73,5370.69 -2966.12,0 -5370.7,-2404.57 -5370.7,-5370.69 0,-2966.16 2404.58,-5370.73 5370.7,-5370.73z"/>
   </clipPath>
      <mask id="id2">
  <linearGradient id="id3" gradientUnits="userSpaceOnUse" x1="7880.9" y1="6843.32" x2="7874.05" y2="2549.51">
   <stop offset="0" style="stop-opacity:0; stop-color:white"/>
   <stop offset="0.541176" style="stop-opacity:0.501961; stop-color:white"/>
   <stop offset="1" style="stop-opacity:1; stop-color:white"/>
  </linearGradient>
       <rect style="fill:url(#id3)" x="3915.78" y="2549.56" width="7916.62" height="5754.22"/>
      </mask>
  <linearGradient id="id4" gradientUnits="userSpaceOnUse" x1="1170.72" y1="6938.25" x2="2132.14" y2="9468.08">
   <stop offset="0" style="stop-opacity:1; stop-color:#319A22"/>
   <stop offset="1" style="stop-opacity:1; stop-color:#C3DE31"/>
  </linearGradient>
  <linearGradient id="id5" gradientUnits="userSpaceOnUse" x1="7880.9" y1="6843.32" x2="7874.05" y2="2549.51">
   <stop offset="0" style="stop-opacity:1; stop-color:#FEFEFE"/>
   <stop offset="0.541176" style="stop-opacity:1; stop-color:#FEFEFE"/>
   <stop offset="1" style="stop-opacity:1; stop-color:#FEFEFE"/>
  </linearGradient>
 </defs>
 <g id="Katman_x0020_1">
  <metadata id="CorelCorpID_0Corel-Layer"/>
  <path class="fil0" d="M2258.55 5255.7l484.96 -568.23 294.86 720.57 -482.95 484.33 -296.87 -636.67zm-120.57 1355.6l397.73 -454.91 408.25 650.81 -387.06 466.94 -418.92 -662.84zm117.87 1419.95l310.58 -420.04 556.46 559.3 -391.41 432.04 -475.63 -571.3zm-822.3 -1549.26l337.67 -565.26 235.61 662.18 -352.17 488.68 -221.11 -585.6zm303.33 730.89l326.2 -472.93 421.49 645.8 -302.6 455.1 -445.09 -627.97zm-189.48 627.91l150.17 -512.61 433.92 606.85 -232.88 494.36 -351.21 -588.6zm422.49 764.07l221.63 -457.45 463.78 567.61 -163.58 445.52 -521.83 -555.68zm-67.62 422.65l40.76 -309.06 451.28 470.62 -27.31 -7.02 -464.73 -154.54zm-516.76 -381.76l113.68 -698.56 362.02 604.68 -58.79 414.38 -416.91 -320.5zm-195.35 -750.95l-19.44 -797.75 260.66 711.74 -112.14 731.35 -129.08 -645.34z"/>
  <g>
   <g style="clip-path:url(#id0)">
    <path class="fil1" d="M4433.98 7913.91c113.31,-43.33 153.24,-138.53 89.2,-212.62 -64.05,-74.09 -207.82,-99.02 -321.13,-55.68 -113.31,43.34 -153.24,138.53 -89.2,212.62 64.05,74.09 207.82,99.02 321.13,55.68z"/>
    <path id="_1" class="fil2" d="M4395.32 7869.2c-75.53,28.89 -171.38,12.27 -214.08,-37.13 -42.7,-49.39 -16.07,-112.85 59.47,-141.74 75.53,-28.9 171.38,-12.27 214.08,37.12 42.7,49.39 16.07,112.85 -59.47,141.75zm115.97 134.15c188.84,-72.23 255.4,-230.89 148.66,-354.37 -106.74,-123.48 -346.36,-165.03 -535.21,-92.81 -188.84,72.23 -255.4,230.89 -148.66,354.37 106.74,123.48 346.36,165.04 535.21,92.81z"/>
    <path id="_2" class="fil2" d="M4472.63 7958.63c-151.07,57.78 -342.77,24.54 -428.16,-74.24 -85.4,-98.79 -32.15,-225.72 118.93,-283.5 151.07,-57.78 342.77,-24.54 428.16,74.25 85.4,98.78 32.15,225.71 -118.93,283.49zm115.96 134.15c264.39,-101.12 357.57,-323.23 208.14,-496.11 -149.44,-172.88 -484.91,-231.05 -749.29,-129.93 -264.39,101.12 -357.57,323.24 -208.14,496.11 149.44,172.88 484.91,231.05 749.29,129.93z"/>
    <path id="_3" class="fil3" d="M4549.94 8048.07c-226.61,86.67 -514.16,36.81 -642.25,-111.37 -128.09,-148.18 -48.22,-338.57 178.4,-425.24 226.61,-86.68 514.16,-36.82 642.25,111.36 128.09,148.18 48.22,338.57 -178.4,425.25zm115.96 134.15c339.93,-130.01 459.73,-415.59 267.6,-637.86 -192.13,-222.27 -623.45,-297.07 -963.37,-167.06 -339.93,130.01 -459.73,415.59 -267.6,637.87 192.13,222.27 623.45,297.06 963.37,167.05z"/>
    <path id="_4" class="fil4" d="M4627.25 8137.5c-302.15,115.56 -685.55,49.08 -856.33,-148.49 -170.79,-197.57 -64.29,-451.42 237.86,-566.99 302.15,-115.56 685.55,-49.08 856.33,148.49 170.79,197.58 64.29,451.43 -237.86,566.99zm115.96 134.15c415.46,-158.9 561.89,-507.94 327.06,-779.61 -234.83,-271.66 -761.99,-363.07 -1177.45,-204.17 -415.46,158.9 -561.89,507.94 -327.06,779.61 234.83,271.66 761.99,363.07 1177.45,204.17z"/>
    <path id="_5" class="fil4" d="M4704.56 8226.93c-377.69,144.46 -856.94,61.36 -1070.42,-185.61 -213.48,-246.97 -80.36,-564.28 297.33,-708.73 377.69,-144.46 856.94,-61.36 1070.42,185.61 213.48,246.97 80.36,564.28 -297.33,708.73zm115.96 134.16c491,-187.8 664.05,-600.3 386.53,-921.36 -277.53,-321.06 -900.54,-429.09 -1391.54,-241.29 -491,187.79 -664.05,600.29 -386.53,921.35 277.53,321.06 900.54,429.09 1391.54,241.3z"/>
    <path id="_6" class="fil5" d="M4781.87 8316.37c-453.23,173.35 -1028.32,73.62 -1284.5,-222.74 -256.18,-296.36 -96.44,-677.13 356.79,-850.48 453.23,-173.34 1028.32,-73.62 1284.5,222.74 256.18,296.36 96.44,677.13 -356.79,850.48zm115.96 134.15c566.54,-216.68 766.21,-692.65 445.99,-1063.1 -320.22,-370.45 -1039.08,-495.1 -1605.62,-278.42 -566.54,216.68 -766.21,692.65 -445.99,1063.1 320.22,370.45 1039.08,495.11 1605.62,278.42z"/>
    <path id="_7" class="fil6" d="M4859.17 8405.8c-528.76,202.24 -1199.7,85.9 -1498.58,-259.85 -298.87,-345.76 -112.5,-789.99 416.27,-992.23 528.76,-202.24 1199.7,-85.9 1498.58,259.86 298.87,345.75 112.5,789.99 -416.27,992.22zm115.97 134.16c642.07,-245.58 868.38,-785.01 505.46,-1204.85 -362.92,-419.85 -1177.63,-561.12 -1819.71,-315.54 -642.07,245.57 -868.38,785 -505.46,1204.84 362.92,419.85 1177.63,561.12 1819.71,315.55z"/>
    <path id="_8" class="fil7" d="M4936.48 8495.24c-604.3,231.13 -1371.09,98.16 -1712.66,-296.98 -341.57,-395.15 -128.58,-902.85 475.73,-1133.98 604.3,-231.13 1371.09,-98.16 1712.66,296.98 341.57,395.15 128.58,902.85 -475.73,1133.98zm115.97 134.15c717.61,-274.47 970.54,-877.36 564.92,-1346.59 -405.61,-469.24 -1316.17,-627.14 -2033.79,-352.67 -717.61,274.47 -970.54,877.36 -564.92,1346.6 405.61,469.23 1316.17,627.13 2033.79,352.66z"/>
    <path id="_9" class="fil8" d="M5013.79 8584.67c-679.84,260.02 -1542.48,110.44 -1926.74,-334.1 -384.27,-444.54 -144.66,-1015.7 535.19,-1275.72 679.84,-260.02 1542.48,-110.44 1926.74,334.1 384.27,444.54 144.66,1015.7 -535.19,1275.72zm115.96 134.16c793.16,-303.36 1072.71,-969.71 624.4,-1488.35 -448.32,-518.63 -1454.72,-693.14 -2247.87,-389.78 -793.16,303.35 -1072.71,969.71 -624.4,1488.34 448.32,518.63 1454.72,693.14 2247.87,389.79z"/>
    <path id="_10" class="fil9" d="M5091.1 8674.11c-755.38,288.91 -1713.87,122.71 -2140.83,-371.23 -426.96,-493.93 -160.72,-1128.55 594.66,-1417.47 755.38,-288.91 1713.87,-122.7 2140.83,371.23 426.96,493.93 160.72,1128.56 -594.66,1417.47zm115.96 134.15c868.69,-332.25 1174.87,-1062.06 683.86,-1630.09 -491.01,-568.02 -1593.26,-759.16 -2461.95,-426.91 -868.69,332.25 -1174.87,1062.07 -683.86,1630.09 491.01,568.02 1593.26,759.16 2461.95,426.91z"/>
    <path id="_11" class="fil10" d="M5168.41 8763.54c-830.92,317.81 -1885.25,134.98 -2354.91,-408.35 -469.66,-543.32 -176.8,-1241.41 654.12,-1559.21 830.92,-317.8 1885.25,-134.98 2354.91,408.35 469.66,543.33 176.8,1241.41 -654.12,1559.21zm115.96 134.15c944.23,-361.13 1277.03,-1154.41 743.32,-1771.83 -533.7,-617.42 -1731.8,-825.17 -2676.03,-464.03 -944.23,361.14 -1277.03,1154.41 -743.32,1771.83 533.7,617.42 1731.8,825.17 2676.03,464.03z"/>
    <path id="_12" class="fil11" d="M5245.72 8852.98c-906.46,346.69 -2056.64,147.25 -2569,-445.47 -512.35,-592.73 -192.87,-1354.27 713.59,-1700.97 906.46,-346.69 2056.64,-147.25 2569,445.48 512.35,592.72 192.87,1354.26 -713.59,1700.96zm115.96 134.15c1019.77,-390.03 1379.19,-1246.77 802.79,-1913.58 -576.4,-666.81 -1870.35,-891.19 -2890.12,-501.16 -1019.77,390.03 -1379.19,1246.77 -802.79,1913.58 576.4,666.82 1870.35,891.19 2890.12,501.16z"/>
    <path id="_13" class="fil12" d="M5323.03 8942.41c-982,375.59 -2228.03,159.52 -2783.08,-482.59 -555.05,-642.12 -208.94,-1467.13 773.05,-1842.71 982,-375.59 2228.03,-159.52 2783.08,482.59 555.05,642.12 208.94,1467.13 -773.05,1842.71zm115.96 134.15c1095.3,-418.92 1481.35,-1339.12 862.25,-2055.32 -619.09,-716.21 -2008.89,-957.2 -3104.2,-538.28 -1095.3,418.92 -1481.35,1339.12 -862.25,2055.33 619.09,716.2 2008.89,957.2 3104.2,538.27z"/>
    <path id="_14" class="fil13" d="M5400.33 9031.85c-1057.53,404.47 -2399.41,171.79 -2997.16,-519.72 -597.74,-691.51 -225.01,-1579.98 832.53,-1984.46 1057.53,-404.47 2399.41,-171.79 2997.16,519.72 597.74,691.51 225.01,1579.98 -832.53,1984.46zm115.97 134.15c1170.84,-447.81 1583.51,-1431.48 921.72,-2197.08 -661.8,-765.59 -2147.44,-1023.21 -3318.29,-575.4 -1170.84,447.82 -1583.51,1431.48 -921.72,2197.08 661.8,765.6 2147.44,1023.21 3318.29,575.4z"/>
    <path id="_15" class="fil14" d="M5477.64 9121.28c-1133.07,433.37 -2570.8,184.06 -3211.24,-556.84 -640.44,-740.9 -241.09,-1692.83 891.99,-2126.2 1133.07,-433.37 2570.8,-184.06 3211.24,556.84 640.44,740.9 241.09,1692.83 -891.99,2126.2zm115.96 134.15c1246.39,-476.7 1685.68,-1523.83 981.19,-2338.82 -704.49,-814.99 -2285.98,-1089.23 -3532.36,-612.52 -1246.39,476.7 -1685.68,1523.83 -981.19,2338.82 704.49,814.99 2285.98,1089.23 3532.36,612.52z"/>
    <path id="_16" class="fil15" d="M5554.95 9210.72c-1208.61,462.26 -2742.18,196.33 -3425.32,-593.97 -683.15,-790.29 -257.16,-1805.69 951.45,-2267.94 1208.61,-462.26 2742.18,-196.34 3425.32,593.96 683.14,790.29 257.16,1805.69 -951.45,2267.95zm115.96 134.15c1321.92,-505.6 1787.84,-1616.19 1040.66,-2480.57 -747.19,-864.39 -2424.53,-1155.24 -3746.45,-649.65 -1321.92,505.6 -1787.84,1616.19 -1040.66,2480.57 747.19,864.39 2424.53,1155.24 3746.45,649.65z"/>
    <path id="_17" class="fil16" d="M5632.26 9300.15c-1284.15,491.15 -2913.57,208.6 -3639.41,-631.08 -725.84,-839.69 -273.23,-1918.55 1010.92,-2409.7 1284.15,-491.15 2913.57,-208.6 3639.41,631.09 725.84,839.68 273.23,1918.54 -1010.92,2409.69zm115.96 134.15c1397.46,-534.48 1890,-1708.53 1100.12,-2622.31 -789.88,-913.78 -2563.07,-1221.26 -3960.53,-686.77 -1397.46,534.48 -1890,1708.54 -1100.12,2622.31 789.88,913.78 2563.07,1221.26 3960.53,686.77z"/>
    <path id="_18" class="fil17" d="M5709.57 9389.59c-1359.69,520.04 -3084.96,220.87 -3853.49,-668.21 -768.54,-889.08 -289.31,-2031.4 1070.38,-2551.44 1359.69,-520.05 3084.96,-220.88 3853.49,668.2 768.54,889.09 289.31,2031.41 -1070.38,2551.45zm115.96 134.15c1473,-563.38 1992.16,-1800.89 1159.58,-2764.06 -832.57,-963.18 -2701.61,-1287.27 -4174.61,-723.9 -1473,563.38 -1992.16,1800.89 -1159.58,2764.07 832.57,963.17 2701.61,1287.27 4174.61,723.89z"/>
    <path id="_19" class="fil18" d="M5786.88 9479.02c-1435.23,548.93 -3256.35,233.15 -4067.58,-705.33 -811.23,-938.47 -305.38,-2144.26 1129.85,-2693.19 1435.23,-548.93 3256.35,-233.14 4067.58,705.33 811.23,938.48 305.38,2144.26 -1129.85,2693.19zm115.96 134.15c1548.54,-592.27 2094.32,-1893.24 1219.05,-2905.81 -875.28,-1012.56 -2840.16,-1353.28 -4388.7,-761.01 -1548.54,592.27 -2094.32,1893.24 -1219.05,2905.81 875.28,1012.56 2840.16,1353.28 4388.7,761.01z"/>
    <path id="_20" class="fil19" d="M5864.18 9568.46c-1510.76,577.82 -3427.73,245.41 -4281.65,-742.46 -853.93,-987.87 -321.45,-2257.11 1189.32,-2834.93 1510.76,-577.83 3427.73,-245.42 4281.65,742.45 853.93,987.87 321.45,2257.11 -1189.32,2834.94zm115.97 134.15c1624.07,-621.16 2196.48,-1985.6 1278.51,-3047.56 -917.97,-1061.96 -2978.7,-1419.3 -4602.78,-798.14 -1624.07,621.16 -2196.48,1985.6 -1278.51,3047.56 917.97,1061.96 2978.7,1419.3 4602.78,798.14z"/>
    <path id="_21" class="fil20" d="M5941.49 9657.89c-1586.3,606.71 -3599.11,257.69 -4495.74,-779.58 -896.62,-1037.26 -337.52,-2369.96 1248.79,-2976.68 1586.3,-606.71 3599.11,-257.69 4495.74,779.58 896.62,1037.26 337.52,2369.97 -1248.79,2976.68zm115.97 134.15c1699.61,-650.05 2298.64,-2077.95 1337.98,-3189.3 -960.67,-1111.35 -3117.25,-1485.31 -4816.87,-835.26 -1699.61,650.05 -2298.64,2077.95 -1337.98,3189.3 960.67,1111.35 3117.25,1485.31 4816.87,835.26z"/>
    <path id="_22" class="fil21" d="M6018.8 9747.32c-1661.84,635.61 -3770.5,269.96 -4709.82,-816.69 -939.32,-1086.66 -353.6,-2482.83 1308.25,-3118.43 1661.84,-635.61 3770.5,-269.96 4709.82,816.7 939.32,1086.65 353.6,2482.82 -1308.25,3118.42zm115.96 134.16c1775.16,-678.95 2400.81,-2170.31 1397.45,-3331.05 -1003.36,-1160.75 -3255.79,-1551.33 -5030.94,-872.39 -1775.16,678.95 -2400.81,2170.31 -1397.45,3331.05 1003.36,1160.75 3255.79,1551.33 5030.94,872.39z"/>
    <path id="_23" class="fil22" d="M6096.11 9836.76c-1737.38,664.5 -3941.89,282.23 -4923.9,-853.82 -982.02,-1136.05 -369.67,-2595.68 1367.71,-3260.18 1737.38,-664.49 3941.89,-282.23 4923.9,853.82 982.02,1136.05 369.67,2595.68 -1367.71,3260.18zm115.96 134.15c1850.69,-707.83 2502.98,-2262.66 1456.92,-3472.8 -1046.06,-1210.13 -3394.34,-1617.33 -5245.03,-909.5 -1850.69,707.83 -2502.98,2262.66 -1456.92,3472.8 1046.06,1210.14 3394.34,1617.34 5245.03,909.5z"/>
    <path id="_24" class="fil23" d="M6173.42 9926.19c-1812.92,693.39 -4113.28,294.5 -5137.99,-890.94 -1024.71,-1185.44 -385.74,-2708.53 1427.18,-3401.92 1812.92,-693.39 4113.28,-294.5 5137.99,890.94 1024.71,1185.44 385.74,2708.54 -1427.18,3401.92zm115.96 134.16c1926.23,-736.73 2605.14,-2355.01 1516.38,-3614.55 -1088.76,-1259.53 -3532.88,-1683.35 -5459.11,-946.62 -1926.23,736.72 -2605.14,2355.01 -1516.38,3614.54 1088.75,1259.53 3532.88,1683.35 5459.11,946.63z"/>
    <path id="_25" class="fil24" d="M6250.73 10015.63c-1888.46,722.28 -4284.67,306.77 -5352.07,-928.07 -1067.41,-1234.83 -401.82,-2821.39 1486.64,-3543.67 1888.46,-722.28 4284.67,-306.77 5352.07,928.07 1067.41,1234.83 401.82,2821.39 -1486.64,3543.67zm115.96 134.15c2001.77,-765.61 2707.3,-2447.36 1575.84,-3756.29 -1131.45,-1308.93 -3671.42,-1749.37 -5673.19,-983.75 -2001.77,765.62 -2707.3,2447.36 -1575.84,3756.29 1131.45,1308.93 3671.42,1749.37 5673.19,983.75z"/>
    <path id="_26" class="fil25" d="M6328.04 10105.06c-1964,751.17 -4456.05,319.04 -5566.16,-965.19 -1110.1,-1284.22 -417.88,-2934.24 1546.11,-3685.41 1964,-751.17 4456.05,-319.04 5566.16,965.19 1110.1,1284.23 417.88,2934.24 -1546.11,3685.41zm115.96 134.16c2077.3,-794.51 2809.46,-2539.72 1635.31,-3898.04 -1174.15,-1358.32 -3809.97,-1815.38 -5887.28,-1020.87 -2077.3,794.5 -2809.46,2539.71 -1635.31,3898.03 1174.15,1358.32 3809.97,1815.38 5887.28,1020.88z"/>
    <path id="_27" class="fil26" d="M6405.34 10194.5c-2039.53,780.06 -4627.43,331.31 -5780.23,-1002.31 -1152.8,-1333.63 -433.96,-3047.11 1605.58,-3827.17 2039.53,-780.06 4627.43,-331.31 5780.23,1002.31 1152.8,1333.63 433.96,3047.11 -1605.58,3827.17zm115.97 134.15c2152.84,-823.4 2911.62,-2632.07 1694.77,-4039.78 -1216.84,-1407.72 -3948.51,-1881.4 -6101.36,-1058 -2152.84,823.4 -2911.62,2632.07 -1694.77,4039.79 1216.84,1407.71 3948.51,1881.39 6101.36,1057.99z"/>
    <path id="_28" class="fil27" d="M6482.65 10283.93c-2115.07,808.96 -4798.82,343.59 -5994.32,-1039.43 -1195.49,-1383.02 -450.03,-3159.96 1665.05,-3968.91 2115.07,-808.95 4798.82,-343.58 5994.32,1039.43 1195.49,1383.02 450.03,3159.96 -1665.05,3968.91zm115.96 134.16c2228.39,-852.29 3013.79,-2724.43 1754.25,-4181.54 -1259.54,-1457.1 -4087.06,-1947.4 -6315.45,-1095.11 -2228.38,852.29 -3013.78,2724.42 -1754.24,4181.53 1259.54,1457.1 4087.06,1947.4 6315.44,1095.12z"/>
    <path id="_29" class="fil28" d="M6559.96 10373.37c-2190.61,837.84 -4970.21,355.85 -6208.4,-1076.56 -1238.19,-1432.41 -466.1,-3272.81 1724.51,-4110.66 2190.61,-837.84 4970.21,-355.85 6208.4,1076.56 1238.19,1432.41 466.1,3272.81 -1724.51,4110.66zm115.96 134.15c2303.92,-881.18 3115.95,-2816.78 1813.71,-4323.28 -1302.23,-1506.5 -4225.6,-2013.42 -6529.52,-1132.24 -2303.92,881.18 -3115.95,2816.78 -1813.71,4323.28 1302.23,1506.5 4225.6,2013.42 6529.52,1132.24z"/>
    <path id="_30" class="fil29" d="M6637.27 10462.8c-2266.15,866.74 -5141.6,368.13 -6422.48,-1113.68 -1280.89,-1481.8 -482.18,-3385.67 1783.97,-4252.4 2266.15,-866.74 5141.6,-368.12 6422.48,1113.68 1280.89,1481.8 482.18,3385.67 -1783.97,4252.4zm115.96 134.15c2379.46,-910.07 3218.11,-2909.13 1873.18,-4465.02 -1344.94,-1555.89 -4364.15,-2079.43 -6743.61,-1169.36 -2379.46,910.07 -3218.11,2909.13 -1873.18,4465.02 1344.94,1555.89 4364.15,2079.44 6743.61,1169.36z"/>
    <path id="_31" class="fil30" d="M6714.58 10552.24c-2341.69,895.62 -5312.98,380.39 -6636.57,-1150.8 -1323.58,-1531.2 -498.25,-3498.53 1843.44,-4394.16 2341.69,-895.62 5312.98,-380.39 6636.57,1150.81 1323.58,1531.19 498.25,3498.52 -1843.44,4394.15zm115.96 134.15c2455,-938.96 3320.27,-3001.48 1932.64,-4606.77 -1387.63,-1605.29 -4502.69,-2145.45 -6957.69,-1206.49 -2455,938.96 -3320.27,3001.49 -1932.64,4606.77 1387.63,1605.29 4502.69,2145.45 6957.69,1206.49z"/>
    <path id="_32" class="fil31" d="M6791.89 10641.67c-2417.23,924.52 -5484.37,392.67 -6850.65,-1187.92 -1366.28,-1580.59 -514.32,-3611.38 1902.9,-4535.9 2417.23,-924.52 5484.37,-392.67 6850.65,1187.92 1366.28,1580.59 514.32,3611.39 -1902.9,4535.9zm115.96 134.15c2530.53,-967.85 3422.43,-3093.83 1992.11,-4748.51 -1430.33,-1654.68 -4641.24,-2211.47 -7171.78,-1243.61 -2530.53,967.85 -3422.43,3093.84 -1992.11,4748.52 1430.33,1654.68 4641.24,2211.46 7171.78,1243.6z"/>
    <path id="_33" class="fil32" d="M6869.19 10731.11c-2492.76,953.41 -5655.75,404.93 -7064.73,-1225.05 -1408.98,-1629.98 -530.39,-3724.24 1962.38,-4677.65 2492.76,-953.4 5655.75,-404.93 7064.73,1225.05 1408.98,1629.99 530.39,3724.24 -1962.38,4677.65zm115.97 134.15c2606.07,-996.75 3524.59,-3186.19 2051.57,-4890.27 -1473.02,-1704.07 -4779.78,-2277.47 -7385.86,-1280.73 -2606.07,996.75 -3524.59,3186.19 -2051.57,4890.27 1473.02,1704.07 4779.78,2277.47 7385.86,1280.73z"/>
    <path id="_34" class="fil33" d="M6946.5 10820.54c-2568.3,982.3 -5827.14,417.21 -7278.81,-1262.17 -1451.68,-1679.38 -546.47,-3837.09 2021.84,-4819.39 2568.3,-982.3 5827.14,-417.21 7278.81,1262.17 1451.68,1679.38 546.47,3837.09 -2021.84,4819.39zm115.97 134.15c2681.61,-1025.63 3626.75,-3278.54 2111.03,-5032.01 -1515.71,-1753.47 -4918.32,-2343.49 -7599.94,-1317.85 -2681.61,1025.63 -3626.75,3278.54 -2111.03,5032.01 1515.71,1753.47 4918.32,2343.49 7599.94,1317.85z"/>
    <path id="_35" class="fil34" d="M7023.81 10909.98c-2643.84,1011.19 -5998.53,429.47 -7492.9,-1299.3 -1494.37,-1728.77 -562.53,-3949.94 2081.31,-4961.13 2643.84,-1011.2 5998.53,-429.48 7492.9,1299.29 1494.37,1728.77 562.53,3949.95 -2081.31,4961.14zm115.96 134.15c2757.15,-1054.53 3728.92,-3370.9 2170.51,-5173.76 -1558.42,-1802.86 -5056.87,-2409.5 -7814.02,-1354.98 -2757.16,1054.53 -3728.92,3370.9 -2170.51,5173.76 1558.42,1802.86 5056.87,2409.51 7814.02,1354.98z"/>
    <path id="_36" class="fil35" d="M7101.12 10999.41c-2719.38,1040.08 -6169.91,441.75 -7706.98,-1336.41 -1537.07,-1778.17 -578.61,-4062.81 2140.77,-5102.89 2719.38,-1040.08 6169.91,-441.75 7706.98,1336.42 1537.07,1778.16 578.61,4062.8 -2140.77,5102.88zm115.96 134.15c2832.69,-1083.42 3831.08,-3463.25 2229.97,-5315.5 -1601.11,-1852.26 -5195.41,-2475.52 -8028.1,-1392.1 -2832.69,1083.42 -3831.08,3463.25 -2229.97,5315.5 1601.11,1852.26 5195.41,2475.52 8028.1,1392.1z"/>
    <path id="_37" class="fil36" d="M7178.43 11088.85c-2794.92,1068.97 -6341.3,454.01 -7921.07,-1373.54 -1579.76,-1827.56 -594.68,-4175.66 2200.24,-5244.63 2794.92,-1068.98 6341.3,-454.02 7921.07,1373.53 1579.76,1827.56 594.68,4175.66 -2200.24,5244.64zm115.96 134.15c2908.23,-1112.31 3933.24,-3555.61 2289.44,-5457.25 -1643.81,-1901.65 -5333.96,-2541.54 -8242.19,-1429.23 -2908.23,1112.31 -3933.24,3555.61 -2289.44,5457.26 1643.81,1901.64 5333.96,2541.53 8242.19,1429.22z"/>
    <path id="_38" class="fil37" d="M7255.74 11178.28c-2870.46,1097.86 -6512.69,466.29 -8135.15,-1410.66 -1622.46,-1876.95 -610.76,-4288.51 2259.7,-5386.38 2870.46,-1097.86 6512.69,-466.29 8135.15,1410.66 1622.46,1876.95 610.76,4288.52 -2259.7,5386.38zm115.96 134.15c2983.77,-1141.2 4035.4,-3647.96 2348.9,-5599 -1686.5,-1951.04 -5472.5,-2607.54 -8456.27,-1466.34 -2983.77,1141.2 -4035.4,3647.96 -2348.9,5599 1686.5,1951.04 5472.5,2607.54 8456.27,1466.34z"/>
    <path id="_39" class="fil38" d="M7333.05 11267.72c-2946,1126.75 -6684.08,478.56 -8349.23,-1447.79 -1665.16,-1926.34 -626.83,-4401.37 2319.16,-5528.12 2946,-1126.76 6684.08,-478.56 8349.23,1447.78 1665.16,1926.34 626.83,4401.37 -2319.16,5528.13zm115.96 134.15c3059.3,-1170.09 4137.57,-3740.31 2408.37,-5740.75 -1729.2,-2000.43 -5611.05,-2673.56 -8670.36,-1503.47 -3059.3,1170.1 -4137.57,3740.32 -2408.37,5740.75 1729.2,2000.43 5611.05,2673.56 8670.36,1503.47z"/>
    <path id="_40" class="fil39" d="M7410.35 11357.15c-3021.53,1155.65 -6855.46,490.83 -8563.31,-1484.91 -1707.85,-1975.73 -642.9,-4514.22 2378.64,-5669.87 3021.53,-1155.64 6855.46,-490.83 8563.31,1484.91 1707.85,1975.74 642.9,4514.22 -2378.64,5669.87zm115.97 134.15c3134.84,-1198.98 4239.73,-3832.66 2467.83,-5882.49 -1771.9,-2049.83 -5749.59,-2739.57 -8884.44,-1540.59 -3134.84,1198.98 -4239.73,3832.66 -2467.83,5882.49 1771.9,2049.83 5749.59,2739.58 8884.44,1540.59z"/>
    <path id="_41" class="fil40" d="M7487.66 11446.58c-3097.07,1184.54 -7026.84,503.11 -8777.39,-1522.02 -1750.55,-2025.13 -658.98,-4627.09 2438.1,-5811.62 3097.07,-1184.54 7026.84,-503.11 8777.39,1522.03 1750.55,2025.13 658.98,4627.08 -2438.1,5811.61zm115.97 134.16c3210.38,-1227.88 4341.89,-3925.02 2527.29,-6024.24 -1814.59,-2099.22 -5888.13,-2805.59 -9098.52,-1577.72 -3210.38,1227.88 -4341.89,3925.02 -2527.29,6024.24 1814.59,2099.23 5888.13,2805.59 9098.52,1577.72z"/>
    <path id="_42" class="fil41" d="M7564.97 11536.02c-3172.61,1213.43 -7198.23,515.37 -8991.48,-1559.15 -1793.24,-2074.53 -675.04,-4739.94 2497.57,-5953.37 3172.61,-1213.43 7198.23,-515.37 8991.48,1559.15 1793.24,2074.53 675.04,4739.94 -2497.57,5953.37zm115.96 134.15c3285.92,-1256.76 4444.06,-4017.37 2586.77,-6165.98 -1857.29,-2148.62 -6026.68,-2871.61 -9312.6,-1614.84 -3285.92,1256.77 -4444.06,4017.37 -2586.77,6165.99 1857.29,2148.61 6026.68,2871.6 9312.6,1614.83z"/>
    <path id="_43" class="fil42" d="M7642.28 11625.45c-3248.15,1242.32 -7369.62,527.65 -9205.56,-1596.27 -1835.94,-2123.92 -691.12,-4852.79 2557.03,-6095.11 3248.15,-1242.32 7369.62,-527.65 9205.56,1596.27 1835.94,2123.92 691.12,4852.79 -2557.03,6095.11zm115.96 134.16c3361.46,-1285.66 4546.22,-4109.73 2646.23,-6307.74 -1899.98,-2198 -6165.22,-2937.61 -9526.68,-1651.95 -3361.46,1285.65 -4546.22,4109.72 -2646.23,6307.73 1899.98,2198.01 6165.22,2937.61 9526.68,1651.96z"/>
    <path id="_44" class="fil43" d="M7719.59 11714.89c-3323.69,1271.21 -7541.01,539.91 -9419.65,-1633.4 -1878.63,-2173.31 -707.19,-4965.65 2616.5,-6236.86 3323.69,-1271.21 7541.01,-539.91 9419.65,1633.4 1878.63,2173.31 707.19,4965.65 -2616.5,6236.86zm115.96 134.15c3437,-1314.55 4648.38,-4202.08 2705.7,-6449.48 -1942.68,-2247.4 -6303.77,-3003.63 -9740.77,-1689.08 -3437,1314.55 -4648.38,4202.08 -2705.7,6449.48 1942.68,2247.4 6303.77,3003.63 9740.77,1689.08z"/>
    <path id="_45" class="fil44" d="M7796.9 11804.32c-3399.23,1300.11 -7712.4,552.19 -9633.73,-1670.52 -1921.33,-2222.7 -723.26,-5078.5 2675.96,-6378.6 3399.23,-1300.1 7712.4,-552.19 9633.73,1670.52 1921.33,2222.7 723.26,5078.5 -2675.96,6378.6zm115.96 134.16c3512.53,-1343.44 4750.54,-4294.44 2765.16,-6591.23 -1985.38,-2296.8 -6442.31,-3069.64 -9954.85,-1726.2 -3512.53,1343.43 -4750.54,4294.43 -2765.16,6591.22 1985.38,2296.8 6442.31,3069.64 9954.85,1726.21z"/>
    <path id="_46" class="fil45" d="M7874.2 11893.76c-3474.76,1328.99 -7883.77,564.45 -9847.8,-1707.64 -1964.03,-2272.1 -739.34,-5191.36 2735.43,-6520.36 3474.76,-1328.99 7883.77,-564.45 9847.8,1707.65 1964.03,2272.09 739.34,5191.36 -2735.43,6520.35zm115.97 134.15c3588.07,-1372.33 4852.7,-4386.78 2824.63,-6732.97 -2028.08,-2346.19 -6580.86,-3135.66 -10168.94,-1763.33 -3588.07,1372.33 -4852.7,4386.79 -2824.63,6732.97 2028.08,2346.19 6580.86,3135.66 10168.94,1763.33z"/>
    <path id="_47" class="fil46" d="M7951.51 11983.19c-3550.3,1357.89 -8055.16,576.73 -10061.89,-1744.76 -2006.72,-2321.49 -755.41,-5304.22 2794.9,-6662.1 3550.3,-1357.89 8055.16,-576.73 10061.89,1744.76 2006.72,2321.49 755.41,5304.22 -2794.9,6662.1zm115.97 134.16c3663.61,-1401.23 4954.86,-4479.14 2884.09,-6874.72 -2070.77,-2395.59 -6719.4,-3201.68 -10383.02,-1800.45 -3663.61,1401.22 -4954.86,4479.13 -2884.09,6874.72 2070.77,2395.58 6719.4,3201.67 10383.02,1800.45z"/>
    <path id="_48" class="fil47" d="M8028.82 12072.63c-3625.84,1386.77 -8226.55,589 -10275.97,-1781.89 -2049.42,-2370.88 -771.48,-5417.07 2854.36,-6803.85 3625.84,-1386.77 8226.55,-588.99 10275.97,1781.89 2049.42,2370.89 771.48,5417.07 -2854.36,6803.85zm115.96 134.15c3739.15,-1430.11 5057.03,-4571.49 2943.56,-7016.47 -2113.46,-2444.97 -6857.94,-3267.68 -10597.09,-1837.57 -3739.15,1430.11 -5057.03,4571.49 -2943.56,7016.47 2113.46,2444.97 6857.94,3267.68 10597.09,1837.57z"/>
    <path id="_49" class="fil48" d="M8106.13 12162.06c-3701.38,1415.67 -8397.94,601.27 -10490.06,-1819.01 -2092.12,-2420.28 -787.55,-5529.92 2913.83,-6945.59 3701.38,-1415.67 8397.94,-601.27 10490.06,1819.01 2092.12,2420.28 787.55,5529.93 -2913.83,6945.59zm115.96 134.15c3814.69,-1459 5159.19,-4663.84 3003.03,-7158.21 -2156.16,-2494.37 -6996.49,-3333.7 -10811.18,-1874.69 -3814.69,1459 -5159.19,4663.84 -3003.03,7158.21 2156.16,2494.37 6996.49,3333.7 10811.18,1874.69z"/>
    <path id="_50" class="fil49" d="M8183.44 12251.5c-3776.92,1444.56 -8569.33,613.54 -10704.14,-1856.14 -2134.82,-2469.67 -803.63,-5642.78 2973.29,-7087.34 3776.92,-1444.55 8569.33,-613.53 10704.14,1856.14 2134.82,2469.67 803.63,5642.78 -2973.29,7087.34zm115.96 134.15c3890.23,-1487.9 5261.35,-4756.2 3062.49,-7299.96 -2198.86,-2543.76 -7135.03,-3399.71 -11025.26,-1911.82 -3890.23,1487.9 -5261.35,4756.2 -3062.49,7299.96 2198.86,2543.76 7135.03,3399.71 11025.26,1911.82z"/>
    <path id="_51" class="fil50" d="M8260.75 12340.93c-3852.46,1473.45 -8740.72,625.81 -10918.23,-1893.25 -2177.51,-2519.07 -819.69,-5755.64 3032.76,-7229.09 3852.46,-1473.45 8740.71,-625.81 10918.23,1893.25 2177.51,2519.07 819.69,5755.64 -3032.76,7229.09zm115.96 134.15c3965.76,-1516.78 5363.51,-4848.55 3121.96,-7441.7 -2241.56,-2593.16 -7273.59,-3465.73 -11239.35,-1948.94 -3965.76,1516.78 -5363.51,4848.55 -3121.96,7441.7 2241.56,2593.16 7273.58,3465.73 11239.35,1948.94z"/>
    <path id="_52" class="fil51" d="M8338.06 12430.37c-3928,1502.34 -8912.1,638.08 -11132.31,-1930.38 -2220.21,-2568.46 -835.77,-5868.49 3092.22,-7370.84 3928,-1502.34 8912.1,-638.08 11132.31,1930.38 2220.21,2568.46 835.77,5868.5 -3092.22,7370.84zm115.96 134.15c4041.3,-1545.68 5465.67,-4940.91 3181.42,-7583.46 -2284.25,-2642.54 -7412.13,-3531.73 -11453.43,-1986.06 -4041.3,1545.68 -5465.67,4940.91 -3181.42,7583.46 2284.25,2642.55 7412.13,3531.74 11453.43,1986.06z"/>
    <path id="_53" class="fil52" d="M8415.36 12519.8c-4003.53,1531.23 -9083.48,650.35 -11346.38,-1967.5 -2262.91,-2617.85 -851.85,-5981.35 3151.69,-7512.58 4003.53,-1531.23 9083.48,-650.35 11346.38,1967.5 2262.91,2617.85 851.85,5981.35 -3151.69,7512.58zm115.97 134.15c4116.84,-1574.56 5567.83,-5033.26 3240.89,-7725.2 -2326.95,-2691.94 -7550.68,-3597.75 -11667.52,-2023.18 -4116.84,1574.57 -5567.83,5033.26 -3240.89,7725.2 2326.95,2691.94 7550.68,3597.75 11667.52,2023.18z"/>
    <path id="_54" class="fil53" d="M8492.67 12609.24c-4079.07,1560.12 -9254.87,662.62 -11560.47,-2004.63 -2305.6,-2667.24 -867.91,-6094.2 3211.16,-7654.32 4079.07,-1560.13 9254.87,-662.63 11560.47,2004.62 2305.6,2667.24 867.91,6094.2 -3211.16,7654.33zm115.97 134.15c4192.38,-1603.46 5669.99,-5125.61 3300.35,-7866.95 -2369.64,-2741.34 -7689.22,-3663.77 -11881.6,-2060.31 -4192.38,1603.46 -5669.99,5125.62 -3300.35,7866.95 2369.64,2741.34 7689.22,3663.77 11881.6,2060.31z"/>
    <path id="_55" class="fil54" d="M8569.98 12698.67c-4154.61,1589.02 -9426.26,674.89 -11774.55,-2041.74 -2348.3,-2716.64 -883.99,-6207.07 3270.62,-7796.08 4154.61,-1589.01 9426.26,-674.89 11774.55,2041.75 2348.3,2716.64 883.99,6207.06 -3270.62,7796.07zm115.96 134.15c4267.92,-1632.35 5772.17,-5217.96 3359.82,-8008.69 -2412.34,-2790.73 -7827.76,-3729.78 -12095.67,-2097.43 -4267.92,1632.35 -5772.17,5217.96 -3359.82,8008.69 2412.34,2790.73 7827.76,3729.78 12095.67,2097.43z"/>
    <path id="_56" class="fil55" d="M8647.29 12788.11c-4230.15,1617.9 -9597.65,687.16 -11988.64,-2078.87 -2390.99,-2766.04 -900.06,-6319.92 3330.09,-7937.82 4230.15,-1617.91 9597.65,-687.17 11988.64,2078.86 2390.99,2766.04 900.06,6319.92 -3330.09,7937.83zm115.96 134.15c4343.46,-1661.24 5874.33,-5310.32 3419.29,-8150.44 -2455.04,-2840.13 -7966.31,-3795.8 -12309.76,-2134.56 -4343.46,1661.25 -5874.33,5310.32 -3419.29,8150.45 2455.04,2840.12 7966.31,3795.79 12309.76,2134.55z"/>
    <path id="_57" class="fil56" d="M8724.6 12877.54c-4305.69,1646.8 -9769.03,699.44 -12202.72,-2115.99 -2433.69,-2815.43 -916.14,-6432.77 3389.55,-8079.57 4305.69,-1646.8 9769.03,-699.43 12202.72,2115.99 2433.69,2815.43 916.14,6432.77 -3389.55,8079.57zm115.96 134.15c4419,-1690.13 5976.49,-5402.67 3478.75,-8292.19 -2497.73,-2889.51 -8104.85,-3861.8 -12523.84,-2171.67 -4419,1690.13 -5976.49,5402.67 -3478.75,8292.19 2497.73,2889.51 8104.85,3861.81 12523.84,2171.67z"/>
    <path id="_58" class="fil57" d="M8801.91 12966.98c-4381.23,1675.68 -9940.42,711.7 -12416.81,-2153.12 -2476.38,-2864.82 -932.2,-6545.63 3449.02,-8221.31 4381.23,-1675.69 9940.42,-711.71 12416.81,2153.11 2476.38,2864.82 932.2,6545.63 -3449.02,8221.32zm115.96 134.15c4494.53,-1719.03 6078.65,-5495.03 3538.22,-8433.94 -2540.43,-2938.91 -8243.4,-3927.82 -12737.93,-2208.8 -4494.53,1719.03 -6078.65,5495.03 -3538.22,8433.94 2540.43,2938.91 8243.4,3927.82 12737.93,2208.8z"/>
    <path id="_59" class="fil58" d="M8879.21 13056.41c-4456.76,1704.58 -10111.8,723.98 -12630.88,-2190.24 -2519.08,-2914.21 -948.28,-6658.48 3508.49,-8363.06 4456.76,-1704.58 10111.8,-723.97 12630.88,2190.24 2519.08,2914.21 948.28,6658.48 -3508.49,8363.06zm115.97 134.15c4570.07,-1747.91 6180.81,-5587.38 3597.68,-8575.68 -2583.12,-2988.3 -8381.94,-3993.84 -12952.01,-2245.92 -4570.07,1747.91 -6180.81,5587.38 -3597.68,8575.68 2583.12,2988.3 8381.94,3993.84 12952.01,2245.92z"/>
    <path id="_60" class="fil59" d="M8956.52 13145.84c-4532.3,1733.47 -10283.19,736.25 -12844.96,-2227.35 -2561.78,-2963.61 -964.36,-6771.34 3567.95,-8504.81 4532.3,-1733.47 10283.19,-736.25 12844.96,2227.36 2561.78,2963.6 964.36,6771.33 -3567.95,8504.8zm115.97 134.16c4645.61,-1776.81 6282.97,-5679.74 3657.15,-8717.43 -2625.83,-3037.7 -8520.49,-4059.85 -13166.1,-2283.05 -4645.61,1776.81 -6282.97,5679.74 -3657.15,8717.43 2625.83,3037.7 8520.49,4059.85 13166.1,2283.05z"/>
    <path id="_61" class="fil60" d="M9033.83 13235.28c-4607.84,1762.36 -10454.58,748.52 -13059.05,-2264.48 -2604.47,-3013 -980.42,-6884.2 3627.42,-8646.56 4607.84,-1762.36 10454.58,-748.52 13059.05,2264.48 2604.47,3013 980.42,6884.2 -3627.42,8646.56zm115.96 134.15c4721.15,-1805.7 6385.14,-5772.08 3716.62,-8859.17 -2668.52,-3087.09 -8659.03,-4125.87 -13380.17,-2320.17 -4721.15,1805.7 -6385.14,5772.09 -3716.62,8859.18 2668.52,3087.09 8659.03,4125.86 13380.17,2320.16z"/>
    <path id="_62" class="fil61" d="M9111.14 13324.71c-4683.38,1791.26 -10625.96,760.79 -13273.13,-2301.6 -2647.17,-3062.39 -996.5,-6997.05 3686.88,-8788.3 4683.38,-1791.25 10625.96,-760.79 13273.13,2301.6 2647.17,3062.4 996.5,6997.05 -3686.88,8788.3zm115.96 134.16c4796.69,-1834.59 6487.3,-5864.44 3776.08,-9000.93 -2711.21,-3136.48 -8797.57,-4191.87 -13594.25,-2357.28 -4796.69,1834.58 -6487.3,5864.43 -3776.09,9000.92 2711.22,3136.48 8797.58,4191.88 13594.26,2357.29z"/>
    <path id="_63" class="fil62" d="M9188.45 13414.15c-4758.92,1820.14 -10797.35,773.06 -13487.22,-2338.73 -2689.86,-3111.78 -1012.57,-7109.9 3746.35,-8930.05 4758.92,-1820.14 10797.35,-773.06 13487.22,2338.73 2689.86,3111.79 1012.57,7109.91 -3746.35,8930.05zm115.96 134.15c4872.23,-1863.48 6589.46,-5956.79 3835.55,-9142.67 -2753.91,-3185.87 -8936.12,-4257.89 -13808.34,-2394.41 -4872.23,1863.48 -6589.46,5956.79 -3835.55,9142.67 2753.91,3185.88 8936.12,4257.89 13808.34,2394.41z"/>
    <path id="_64" class="fil63" d="M9265.76 13503.58c-4834.46,1849.04 -10968.74,785.33 -13701.3,-2375.85 -2732.56,-3161.18 -1028.64,-7222.76 3805.81,-9071.79 4834.46,-1849.04 10968.74,-785.33 13701.3,2375.85 2732.56,3161.18 1028.64,7222.76 -3805.81,9071.79zm115.96 134.16c4947.76,-1892.38 6691.62,-6049.15 3895.01,-9284.42 -2796.6,-3235.27 -9074.66,-4323.91 -14022.42,-2431.53 -4947.76,1892.37 -6691.62,6049.14 -3895.01,9284.41 2796.6,3235.27 9074.66,4323.91 14022.42,2431.54z"/>
    <path id="_65" class="fil63" d="M9343.07 13593.02c-4910,1877.92 -11140.13,797.6 -13915.39,-2412.97 -2775.26,-3210.58 -1044.71,-7335.62 3865.28,-9213.55 4910,-1877.92 11140.13,-797.6 13915.39,2412.98 2775.26,3210.57 1044.71,7335.61 -3865.28,9213.54zm115.96 134.15c5023.3,-1921.26 6793.78,-6141.5 3954.48,-9426.16 -2839.31,-3284.67 -9213.21,-4389.92 -14236.51,-2468.66 -5023.3,1921.26 -6793.78,6141.5 -3954.48,9426.16 2839.31,3284.67 9213.21,4389.92 14236.51,2468.66z"/>
    <path id="_66" class="fil64" d="M9420.37 13682.45c-4985.53,1906.82 -11311.51,809.87 -14129.46,-2450.09 -2817.96,-3259.97 -1060.79,-7448.47 3924.75,-9355.29 4985.53,-1906.82 11311.51,-809.87 14129.46,2450.09 2817.96,3259.97 1060.79,7448.48 -3924.75,9355.29zm115.97 134.16c5098.84,-1950.16 6895.94,-6233.86 4013.94,-9567.91 -2882,-3334.06 -9351.75,-4455.94 -14450.59,-2505.78 -5098.84,1950.15 -6895.94,6233.85 -4013.94,9567.91 2882,3334.05 9351.75,4455.93 14450.59,2505.78z"/>
    <path id="_67" class="fil64" d="M9497.68 13771.89c-5061.07,1935.71 -11482.89,822.14 -14343.55,-2487.22 -2860.65,-3309.36 -1076.85,-7561.33 3984.22,-9497.04 5061.07,-1935.7 11482.89,-822.14 14343.55,2487.22 2860.65,3309.36 1076.85,7561.33 -3984.22,9497.04zm115.97 134.15c5174.37,-1979.04 6998.1,-6326.21 4073.41,-9709.66 -2924.7,-3383.45 -9490.3,-4521.94 -14664.68,-2542.9 -5174.37,1979.05 -6998.1,6326.21 -4073.41,9709.66 2924.7,3383.45 9490.3,4521.94 14664.68,2542.9z"/>
    <path id="_68" class="fil64" d="M9574.99 13861.32c-5136.61,1964.6 -11654.28,834.42 -14557.63,-2524.34 -2903.35,-3358.75 -1092.93,-7674.18 4043.68,-9638.78 5136.61,-1964.6 11654.28,-834.41 14557.63,2524.34 2903.35,3358.75 1092.93,7674.18 -4043.68,9638.78zm115.96 134.15c5249.92,-2007.93 7100.27,-6418.55 4132.88,-9851.4 -2967.39,-3432.84 -9628.84,-4587.96 -14878.75,-2580.02 -5249.92,2007.93 -7100.27,6418.56 -4132.88,9851.4 2967.39,3432.84 9628.84,4587.96 14878.75,2580.02z"/>
    <path id="_69" class="fil64" d="M9652.3 13950.76c-5212.15,1993.49 -11825.67,846.68 -14771.71,-2561.47 -2946.05,-3408.14 -1109.01,-7787.04 4103.14,-9780.53 5212.15,-1993.49 11825.67,-846.68 14771.71,2561.47 2946.05,3408.14 1109.01,7787.04 -4103.14,9780.53zm115.96 134.15c5325.46,-2036.83 7202.43,-6510.91 4192.35,-9993.15 -3010.09,-3482.24 -9767.39,-4653.97 -15092.84,-2617.15 -5325.46,2036.83 -7202.43,6510.91 -4192.35,9993.15 3010.09,3482.24 9767.39,4653.98 15092.84,2617.15z"/>
    <path id="_70" class="fil64" d="M9729.61 14040.19c-5287.69,2022.38 -11997.06,858.96 -14985.8,-2598.58 -2988.74,-3457.54 -1125.07,-7899.9 4162.61,-9922.28 5287.69,-2022.38 11997.06,-858.96 14985.8,2598.59 2988.74,3457.54 1125.07,7899.89 -4162.61,9922.27zm115.96 134.15c5400.99,-2065.71 7304.59,-6603.26 4251.81,-10134.89 -3052.79,-3531.63 -9905.93,-4719.99 -15306.92,-2654.27 -5400.99,2065.72 -7304.59,6603.26 -4251.81,10134.89 3052.79,3531.64 9905.93,4719.99 15306.92,2654.27z"/>
    <path id="_71" class="fil64" d="M9806.92 14129.63c-5363.23,2051.27 -12168.45,871.22 -15199.88,-2635.71 -3031.44,-3506.94 -1141.15,-8012.75 4222.07,-10064.03 5363.23,-2051.27 12168.45,-871.22 15199.88,2635.71 3031.44,3506.94 1141.15,8012.75 -4222.07,10064.03zm115.96 134.15c5476.53,-2094.61 7406.76,-6695.62 4311.27,-10276.64 -3095.48,-3581.03 -10044.47,-4786.01 -15521,-2691.4 -5476.53,2094.61 -7406.76,6695.62 -4311.27,10276.65 3095.48,3581.02 10044.47,4786 15521,2691.39z"/>
    <path id="_72" class="fil64" d="M9884.22 14219.06c-5438.76,2080.17 -12339.82,883.5 -15413.96,-2672.83 -3074.13,-3556.33 -1157.22,-8125.61 4281.54,-10205.77 5438.77,-2080.16 12339.83,-883.5 15413.97,2672.83 3074.13,3556.33 1157.22,8125.61 -4281.55,10205.77zm115.97 134.15c5552.07,-2123.5 7508.92,-6787.97 4370.74,-10418.39 -3138.18,-3630.41 -10183.02,-4852.01 -15735.09,-2728.51 -5552.07,2123.5 -7508.92,6787.97 -4370.74,10418.39 3138.18,3630.42 10183.02,4852.01 15735.09,2728.51z"/>
    <path id="_73" class="fil64" d="M9961.53 14308.5c-5514.3,2109.05 -12511.21,895.76 -15628.04,-2709.96 -3116.83,-3605.72 -1173.3,-8238.46 4341.01,-10347.51 5514.3,-2109.06 12511.21,-895.77 15628.04,2709.95 3116.83,3605.72 1173.3,8238.46 -4341.01,10347.52zm115.97 134.15c5627.61,-2152.39 7611.08,-6880.33 4430.2,-10560.14 -3180.87,-3679.81 -10321.56,-4918.03 -15949.17,-2765.64 -5627.61,2152.39 -7611.08,6880.33 -4430.2,10560.14 3180.87,3679.81 10321.56,4918.03 15949.17,2765.64z"/>
    <path id="_74" class="fil64" d="M10038.84 14397.93c-5589.84,2137.95 -12682.6,908.04 -15842.13,-2747.08 -3159.52,-3655.11 -1189.36,-8351.31 4400.48,-10489.26 5589.84,-2137.95 12682.6,-908.04 15842.13,2747.08 3159.52,3655.11 1189.36,8351.31 -4400.48,10489.26zm115.96 134.15c5703.15,-2181.28 7713.25,-6972.68 4489.68,-10701.88 -3223.57,-3729.21 -10460.11,-4984.04 -16163.25,-2802.76 -5703.15,2181.28 -7713.25,6972.68 -4489.68,10701.88 3223.57,3729.21 10460.11,4984.05 16163.25,2802.76z"/>
    <path id="_75" class="fil64" d="M10116.15 14487.37c-5665.38,2166.83 -12853.99,920.3 -16056.21,-2784.2 -3202.22,-3704.51 -1205.44,-8464.18 4459.94,-10631.01 5665.38,-2166.84 12853.99,-920.31 16056.21,2784.19 3202.22,3704.51 1205.44,8464.18 -4459.94,10631.02zm115.96 134.15c5778.69,-2210.18 7815.41,-7065.04 4549.14,-10843.63 -3266.26,-3778.6 -10598.65,-5050.06 -16377.33,-2839.89 -5778.69,2210.18 -7815.41,7065.04 -4549.14,10843.63 3266.26,3778.6 10598.65,5050.06 16377.33,2839.89z"/>
    <path id="_76" class="fil64" d="M10193.46 14576.8c-5740.92,2195.73 -13025.38,932.58 -16270.29,-2821.32 -3244.92,-3753.9 -1221.52,-8577.03 4519.4,-10772.76 5740.92,-2195.73 13025.38,-932.58 16270.29,2821.32 3244.92,3753.9 1221.52,8577.03 -4519.4,10772.76zm115.96 134.15c5854.23,-2239.06 7917.57,-7157.38 4608.61,-10985.38 -3308.97,-3827.99 -10737.2,-5116.07 -16591.42,-2877 -5854.23,2239.06 -7917.57,7157.39 -4608.61,10985.38 3308.97,3827.99 10737.2,5116.07 16591.42,2877z"/>
    <path id="_77" class="fil64" d="M10270.77 14666.24c-5816.46,2224.61 -13196.76,944.85 -16484.38,-2858.45 -3287.61,-3803.29 -1237.58,-8689.88 4578.87,-10914.5 5816.46,-2224.62 13196.76,-944.85 16484.38,2858.44 3287.61,3803.3 1237.58,8689.89 -4578.87,10914.51zm115.96 134.15c5929.76,-2267.96 8019.73,-7249.74 4668.07,-11127.13 -3351.66,-3877.38 -10875.74,-5182.08 -16805.5,-2914.13 -5929.76,2267.96 -8019.73,7249.74 -4668.07,11127.13 3351.66,3877.38 10875.74,5182.08 16805.5,2914.13z"/>
    <path id="_78" class="fil64" d="M10348.08 14755.67c-5892,2253.51 -13368.15,957.12 -16698.46,-2895.57 -3330.31,-3852.69 -1253.66,-8802.74 4638.33,-11056.25 5892,-2253.51 13368.15,-957.12 16698.46,2895.57 3330.31,3852.69 1253.66,8802.74 -4638.33,11056.25zm115.96 134.15c6005.3,-2296.85 8121.89,-7342.09 4727.53,-11268.87 -3394.35,-3926.78 -11014.28,-5248.1 -17019.58,-2951.25 -6005.3,2296.85 -8121.89,7342.09 -4727.53,11268.87 3394.35,3926.78 11014.28,5248.1 17019.58,2951.25z"/>
    <path id="_79" class="fil64" d="M10425.38 14845.1c-5967.53,2282.41 -13539.53,969.4 -16912.54,-2932.68 -3373,-3902.09 -1269.73,-8915.6 4697.81,-11198 5967.53,-2282.4 13539.53,-969.39 16912.54,2932.69 3373,3902.08 1269.73,8915.59 -4697.81,11197.99zm115.97 134.16c6080.84,-2325.74 8224.05,-7434.45 4787,-11410.62 -3437.05,-3976.17 -11152.83,-5314.11 -17233.67,-2988.38 -6080.84,2325.74 -8224.05,7434.45 -4787,11410.62 3437.05,3976.17 11152.83,5314.12 17233.67,2988.38z"/>
    <path id="_80" class="fil64" d="M10502.69 14934.54c-6043.07,2311.29 -13710.92,981.66 -17126.62,-2969.81 -3415.7,-3951.48 -1285.8,-9028.45 4757.27,-11339.75 6043.07,-2311.29 13710.92,-981.66 17126.62,2969.81 3415.7,3951.48 1285.8,9028.46 -4757.27,11339.75zm115.97 134.15c6156.37,-2354.63 8326.21,-7526.8 4846.46,-11552.36 -3479.74,-4025.57 -11291.37,-5380.13 -17447.75,-3025.5 -6156.37,2354.63 -8326.21,7526.8 -4846.46,11552.37 3479.74,4025.56 11291.37,5380.12 17447.75,3025.49z"/>
    <path id="_81" class="fil64" d="M10580 15023.97c-6118.61,2340.19 -13882.31,993.94 -17340.71,-3006.93 -3458.4,-4000.87 -1301.87,-9141.31 4816.74,-11481.49 6118.61,-2340.19 13882.31,-993.94 17340.71,3006.93 3458.4,4000.87 1301.87,9141.31 -4816.74,11481.49zm115.96 134.16c6231.92,-2383.52 8428.38,-7619.16 4905.94,-11694.12 -3522.45,-4074.95 -11429.92,-5446.14 -17661.83,-3062.61 -6231.92,2383.52 -8428.38,7619.15 -4905.94,11694.11 3522.45,4074.96 11429.92,5446.14 17661.83,3062.62z"/>
    <path id="_82" class="fil64" d="M10657.31 15113.41c-6194.15,2369.07 -14053.69,1006.2 -17554.79,-3044.06 -3501.1,-4050.26 -1317.95,-9254.16 4876.2,-11623.24 6194.15,-2369.07 14053.69,-1006.2 17554.79,3044.06 3501.1,4050.26 1317.95,9254.16 -4876.2,11623.24zm115.96 134.15c6307.46,-2412.41 8530.54,-7711.51 4965.4,-11835.86 -3565.14,-4124.35 -11568.46,-5512.15 -17875.91,-3099.74 -6307.46,2412.41 -8530.54,7711.51 -4965.4,11835.86 3565.14,4124.35 11568.46,5512.15 17875.91,3099.74z"/>
    <path id="_83" class="fil64" d="M10734.62 15202.84c-6269.69,2397.97 -14225.08,1018.48 -17768.87,-3081.18 -3543.8,-4099.65 -1334.02,-9367.02 4935.66,-11764.98 6269.69,-2397.97 14225.08,-1018.48 17768.87,3081.18 3543.8,4099.65 1334.02,9367.02 -4935.66,11764.98zm115.96 134.16c6382.99,-2441.31 8632.7,-7803.86 5024.87,-11977.61 -3607.84,-4173.75 -11707.01,-5578.17 -18090,-3136.86 -6382.99,2441.3 -8632.7,7803.86 -5024.87,11977.6 3607.84,4173.75 11707.01,5578.17 18090,3136.87z"/>
    <path id="_84" class="fil64" d="M10811.93 15292.28c-6345.23,2426.86 -14396.47,1030.74 -17982.96,-3118.3 -3586.49,-4149.05 -1350.09,-9479.88 4995.13,-11906.74 6345.23,-2426.85 14396.47,-1030.74 17982.96,3118.31 3586.49,4149.05 1350.09,9479.87 -4995.13,11906.73zm115.96 134.15c6458.53,-2470.19 8734.86,-7896.21 5084.33,-12119.35 -3650.53,-4223.14 -11845.55,-5644.18 -18304.08,-3173.99 -6458.53,2470.2 -8734.86,7896.21 -5084.33,12119.35 3650.53,4223.14 11845.55,5644.18 18304.08,3173.99z"/>
    <path id="_85" class="fil64" d="M10889.24 15381.71c-6420.77,2455.75 -14567.86,1043.02 -18197.04,-3155.42 -3629.19,-4198.44 -1366.17,-9592.73 5054.59,-12048.48 6420.77,-2455.75 14567.86,-1043.02 18197.04,3155.42 3629.19,4198.45 1366.17,9592.73 -5054.59,12048.48zm115.96 134.16c6534.07,-2499.09 8837.02,-7988.57 5143.79,-12261.1 -3693.22,-4272.54 -11984.09,-5710.2 -18518.16,-3211.11 -6534.07,2499.08 -8837.02,7988.56 -5143.79,12261.1 3693.22,4272.53 11984.09,5710.19 18518.16,3211.11z"/>
    <path id="_86" class="fil64" d="M10966.54 15471.15c-6496.3,2484.64 -14739.24,1055.29 -18411.12,-3192.55 -3671.88,-4247.84 -1382.23,-9705.59 5114.07,-12190.23 6496.3,-2484.64 14739.24,-1055.28 18411.12,3192.55 3671.88,4247.84 1382.23,9705.59 -5114.07,12190.23zm115.97 134.15c6609.6,-2527.98 8939.18,-8080.92 5203.26,-12402.85 -3735.93,-4321.92 -12122.64,-5776.2 -18732.25,-3248.23 -6609.6,2527.98 -8939.18,8080.92 -5203.26,12402.85 3735.93,4321.92 12122.64,5776.21 18732.25,3248.23z"/>
    <path id="_87" class="fil64" d="M11043.85 15560.58c-6571.84,2513.53 -14910.62,1067.56 -18625.2,-3229.67 -3714.58,-4297.23 -1398.31,-9818.44 5173.53,-12331.97 6571.84,-2513.53 14910.62,-1067.56 18625.2,3229.67 3714.58,4297.23 1398.31,9818.44 -5173.53,12331.97zm115.96 134.15c6685.15,-2556.86 9041.35,-8173.27 5262.73,-12544.59 -3778.62,-4371.32 -12261.18,-5842.22 -18946.32,-3285.35 -6685.15,2556.87 -9041.36,8173.27 -5262.73,12544.59 3778.62,4371.32 12261.18,5842.22 18946.32,3285.35z"/>
    <path id="_88" class="fil64" d="M11121.16 15650.02c-6647.38,2542.42 -15082.01,1079.83 -18839.29,-3266.8 -3757.27,-4346.62 -1414.38,-9931.29 5233,-12473.72 6647.38,-2542.42 15082.01,-1079.82 18839.29,3266.8 3757.27,4346.62 1414.38,9931.29 -5233,12473.72zm115.96 134.15c6760.69,-2585.76 9143.52,-8265.63 5322.2,-12686.34 -3821.32,-4420.71 -12399.73,-5908.24 -19160.41,-3322.48 -6760.69,2585.76 -9143.52,8265.63 -5322.2,12686.34 3821.32,4420.71 12399.73,5908.24 19160.41,3322.48z"/>
    <path id="_89" class="fil64" d="M11198.47 15739.45c-6722.92,2571.32 -15253.4,1092.1 -19053.37,-3303.91 -3799.97,-4396.02 -1430.45,-10044.16 5292.46,-12615.47 6722.92,-2571.31 15253.4,-1092.1 19053.37,3303.92 3799.97,4396.01 1430.45,10044.15 -5292.46,12615.46zm115.96 134.15c6836.22,-2614.65 9245.68,-8357.98 5381.66,-12828.08 -3864.01,-4470.11 -12538.27,-5974.25 -19374.49,-3359.6 -6836.23,2614.65 -9245.68,8357.98 -5381.66,12828.08 3864.01,4470.11 12538.27,5974.25 19374.49,3359.6z"/>
    <path id="_90" class="fil64" d="M11275.78 15828.89c-6798.46,2600.2 -15424.79,1104.37 -19267.45,-3341.04 -3842.67,-4445.41 -1446.53,-10157.01 5351.92,-12757.22 6798.46,-2600.2 15424.79,-1104.37 19267.45,3341.04 3842.67,4445.41 1446.53,10157.01 -5351.92,12757.22zm115.96 134.15c6911.76,-2643.54 9347.84,-8450.33 5441.13,-12969.83 -3906.71,-4519.5 -12676.82,-6040.27 -19588.58,-3396.73 -6911.76,2643.54 -9347.84,8450.34 -5441.13,12969.84 3906.71,4519.5 12676.82,6040.26 19588.58,3396.72z"/>
    <path id="_91" class="fil64" d="M11353.09 15918.32c-6874,2629.1 -15596.18,1116.64 -19481.54,-3378.16 -3885.36,-4494.8 -1462.6,-10269.86 5411.39,-12898.96 6874,-2629.1 15596.18,-1116.64 19481.54,3378.16 3885.36,4494.8 1462.6,10269.87 -5411.39,12898.96zm77.3 89.44c6949.54,-2657.99 9398.92,-8496.51 5470.86,-13040.71 -3928.06,-4544.2 -12746.08,-6073.27 -19695.61,-3415.28 -6949.54,2657.98 -9398.92,8496.51 -5470.86,13040.7 3928.06,4544.2 12746.08,6073.27 19695.61,3415.29z"/>
   </g>
  </g>
  <g style="clip-path:url(#id1)">
   <g id="_2582946330688">
    <g>
     <path id="_92" class="fil65" style="mask:url(#id2)" d="M7874.09 2549.56c2186.04,0 3958.31,1287.99 3958.31,2877.2 0,1589.03 -1772.27,2877.02 -3958.31,2877.02 -2186.23,0 -3958.31,-1287.99 -3958.31,-2877.02 0,-1589.21 1772.08,-2877.2 3958.31,-2877.2z"/>
    </g>
   </g>
  </g>
  <path class="fil66" d="M7874.02 2234.98c2966.15,0 5370.73,2404.57 5370.73,5370.73 0,2966.12 -2404.58,5370.69 -5370.73,5370.69 -2966.12,0 -5370.7,-2404.57 -5370.7,-5370.69 0,-2966.16 2404.58,-5370.73 5370.7,-5370.73z"/>
 </g>
</svg>
